<svg width="30" height="3" viewBox="0 0 30 3" fill="none" xmlns="http://www.w3.org/2000/svg">
<g clip-path="url(#clip0_560_2)">
<path d="M0.285752 0.0050849C0.453863 -0.00794148 0.67423 0.00598686 0.841707 0.0251044C0.894194 0.0310336 0.867616 0.0575377 0.903848 0.062824C0.974711 0.0731291 1.04073 0.0601305 1.11076 0.0724065C1.13397 0.0766045 1.10508 0.118587 1.12941 0.122028C1.26276 0.140582 1.38892 0.129888 1.524 0.138813C2.1894 0.182843 2.84346 0.198602 3.517 0.217731C3.73908 0.224002 4.00905 0.262103 4.23843 0.245441C4.26521 0.243458 4.24925 0.206608 4.25434 0.203571C4.33425 0.157075 4.30768 0.231467 4.35986 0.241351C4.56693 0.280377 4.79721 0.283771 4.99649 0.269549C5.08128 0.263391 4.99627 0.190198 5.08164 0.23128C5.08756 0.234056 5.06605 0.273188 5.0893 0.277362C5.14203 0.286749 5.24207 0.279755 5.28294 0.282855C5.3617 0.289028 5.37473 0.288635 5.44922 0.289081C5.55106 0.290031 5.67218 0.309483 5.78144 0.300616C5.80477 0.298607 5.77389 0.258493 5.81108 0.251666C5.84831 0.244851 5.9468 0.248252 5.98 0.257709C6.01321 0.26717 5.99907 0.298699 6.00495 0.305926C6.0533 0.366925 6.16722 0.282442 6.18187 0.280353C6.44913 0.244753 6.67831 0.29288 6.92917 0.292743C7.11962 0.292536 7.32326 0.276648 7.50447 0.278827C7.72036 0.281578 7.90333 0.303315 8.11307 0.299579C8.1352 0.29923 8.10926 0.252065 8.1363 0.251544C8.42352 0.246056 8.70874 0.251197 8.99472 0.283038C9.0234 0.286273 8.98644 0.327684 9.01509 0.333392C9.19053 0.367424 9.46811 0.449179 9.57231 0.268878C9.69114 0.275918 9.83541 0.283193 9.94172 0.319537C10.0103 0.342929 9.94369 0.388042 10.0279 0.368792C10.0469 0.364503 10.0222 0.324995 10.0507 0.321551C10.1706 0.307088 10.3016 0.31993 10.4202 0.299518C10.4443 0.295273 10.4377 0.259872 10.4446 0.253497C10.502 0.201871 10.5977 0.287213 10.6185 0.293414C10.7773 0.339658 10.8933 0.32146 11.0412 0.322589C11.0755 0.322871 11.0349 0.27532 11.0679 0.273883C11.2392 0.267068 11.4167 0.271155 11.5844 0.292254C11.6217 0.297062 11.5874 0.337567 11.6052 0.341937C11.6839 0.360712 11.7013 0.284209 11.7767 0.300738C11.7926 0.304125 11.7836 0.3388 11.7865 0.342608C11.8319 0.402389 11.8713 0.317684 11.883 0.315814C12.0306 0.290261 12.125 0.378689 12.2676 0.366168C12.2847 0.36458 12.2462 0.320706 12.2942 0.318927C12.6137 0.306815 12.9517 0.318867 13.268 0.353961C13.3171 0.359358 13.282 0.392317 13.2851 0.39638C13.3356 0.459864 13.3682 0.374803 13.3842 0.3716C13.5107 0.348541 13.6289 0.419874 13.7148 0.31856C14.2506 0.35372 14.7839 0.296827 15.3152 0.387591C15.322 0.388642 15.3098 0.430535 15.3233 0.432452C15.4856 0.455974 15.4544 0.390865 15.5618 0.311236C15.5889 0.291241 15.6711 0.38738 15.6784 0.394427C15.705 0.420396 15.6774 0.48272 15.6863 0.487749C15.7598 0.527241 15.7478 0.321129 15.847 0.321063C15.8501 0.321407 15.8371 0.359344 15.8454 0.363116C15.8713 0.374958 15.8969 0.359883 15.9222 0.372943C15.9801 0.403161 16.0007 0.503313 16.0892 0.445025C16.1004 0.43746 16.0833 0.320545 16.1718 0.326068C16.2071 0.328369 16.3633 0.326365 16.4071 0.333941C16.4508 0.341509 16.4208 0.379185 16.4239 0.380816C16.5417 0.430636 16.4971 0.451284 16.5561 0.525042C16.6151 0.598522 16.5987 0.423265 16.6228 0.403704C16.6469 0.384199 16.7333 0.425303 16.7545 0.439593C16.7757 0.453888 16.7493 0.477829 16.7681 0.485918C16.8932 0.538773 16.823 0.398928 16.8643 0.371112C16.9615 0.305249 17.0371 0.435219 17.1261 0.447955C17.1502 0.451394 17.1305 0.421792 17.152 0.419024C17.2369 0.408452 17.2879 0.449006 17.3845 0.411822C17.4003 0.405762 17.4784 0.327621 17.5289 0.384967C17.5361 0.393236 17.5158 0.425624 17.5519 0.432879C17.606 0.443767 17.7034 0.450846 17.7615 0.44002C17.8044 0.43201 17.7552 0.378642 17.8092 0.39522C17.8332 0.402623 17.7887 0.433844 17.8338 0.445147C17.8787 0.456447 17.9933 0.455075 18.0369 0.453997C18.0805 0.452895 18.0567 0.412413 18.0602 0.409686C18.0815 0.394063 18.1651 0.374542 18.1724 0.374591C18.545 0.369649 18.8886 0.437886 19.2513 0.415301C19.2797 0.413587 19.2608 0.370898 19.2651 0.370196C19.3626 0.35231 19.2857 0.465811 19.3538 0.503802C19.344 0.417173 19.3842 0.432858 19.4528 0.423358C19.4859 0.418709 19.4679 0.385165 19.4709 0.381732C19.52 0.330783 19.5541 0.39659 19.5629 0.410052C19.5954 0.459572 19.6307 0.401061 19.6529 0.434161C19.675 0.467013 19.6241 0.515717 19.6899 0.515093C19.7084 0.484083 19.6595 0.403044 19.7095 0.38991C19.8981 0.340231 20.2501 0.403813 20.4018 0.410418C20.5531 0.417017 20.602 0.411296 20.6902 0.422503C20.8494 0.442767 20.7911 0.382641 20.89 0.35512C20.9892 0.327603 20.9409 0.475539 20.9552 0.507342C20.9692 0.53913 20.9845 0.506407 21.0019 0.523882C21.0192 0.541353 20.9817 0.562976 21.0225 0.569536C21.0633 0.57609 21.175 0.519537 21.1895 0.486285C21.2201 0.415836 21.1697 0.341897 21.2778 0.367877C21.284 0.369419 21.2638 0.408318 21.2876 0.412249C21.4767 0.442195 21.673 0.444052 21.8618 0.470538C21.8878 0.47424 21.8645 0.517514 21.8797 0.520159C22.037 0.547838 21.9808 0.474872 22.067 0.393817C22.0476 0.501684 22.0953 0.567679 22.2147 0.568316C22.2865 0.568736 22.2742 0.521625 22.3206 0.488421C22.3345 0.478411 22.3853 0.51076 22.3945 0.488604C22.4249 0.41618 22.377 0.335106 22.5002 0.367388C22.5056 0.368923 22.4884 0.408567 22.507 0.410967C22.6277 0.426682 22.6421 0.350928 22.7725 0.341754C22.8747 0.334555 23.0566 0.380749 23.173 0.388262C23.1705 0.509537 23.2804 0.481767 23.325 0.39815C23.4006 0.401573 23.4822 0.396846 23.5552 0.408404C23.5803 0.412344 23.5638 0.447457 23.567 0.45125C23.6156 0.510765 23.6484 0.429415 23.6647 0.426226C23.8414 0.395224 23.9854 0.456881 24.1541 0.396624C24.16 0.394454 24.1697 0.310213 24.2148 0.371722C24.2177 0.375962 24.162 0.41429 24.2414 0.417254C24.3207 0.420225 24.4703 0.465384 24.5805 0.426348C24.6071 0.416951 24.6745 0.348564 24.7287 0.401995C24.7359 0.409251 24.728 0.433411 24.7384 0.446856C24.772 0.489695 24.7904 0.404549 24.8299 0.476885C24.8695 0.549219 24.9517 0.603391 25.0628 0.553484C25.0664 0.552033 25.0927 0.484546 25.1276 0.485613C25.1834 0.487375 25.2626 0.501434 25.3208 0.500994C25.3487 0.500759 25.3308 0.458853 25.3357 0.458086C25.5231 0.434604 25.6566 0.471963 25.8574 0.488177C25.8942 0.491232 26 0.434086 26.0713 0.479266C26.1495 0.528723 26.0691 0.734456 26.249 0.685442C26.3216 0.665837 26.4134 0.404826 26.5438 0.540056C26.7967 0.506547 27.0306 0.575757 27.2841 0.52791C27.2955 0.525791 27.3316 0.452945 27.3584 0.453936C27.3982 0.455549 27.4201 0.489596 27.4485 0.491839C27.5676 0.502094 27.6765 0.472965 27.7913 0.477496C27.8349 0.479142 27.8197 0.514346 27.8717 0.516314C27.9236 0.518249 27.9583 0.471891 28.0287 0.49428C28.0819 0.511346 28.135 0.606099 28.2056 0.617144C28.2083 0.52368 28.2568 0.525605 28.3429 0.500933C28.3595 0.496146 28.3417 0.463616 28.3496 0.459673C28.3815 0.442907 28.411 0.469868 28.4413 0.451617C28.4486 0.447233 28.449 0.415315 28.455 0.40993C28.5062 0.362924 28.5905 0.434721 28.605 0.447222C28.6605 0.494698 28.6865 0.453185 28.7291 0.47188C28.7716 0.490574 28.708 0.513942 28.7577 0.525286C28.8606 0.548749 28.9929 0.543594 29.0975 0.545061C29.1392 0.545449 29.1107 0.502843 29.1167 0.50191C29.2029 0.491103 29.2902 0.536424 29.338 0.451556C29.3978 0.670994 29.39 0.430271 29.5133 0.4742C29.523 0.477753 29.5354 0.581523 29.4981 0.596758C29.4608 0.611978 29.4043 0.579541 29.3525 0.603289C29.3403 0.608862 29.2701 0.706101 29.2605 0.711992C29.1855 0.758027 29.1749 0.602956 29.1709 0.594439C29.1259 0.502523 29.0402 0.60728 29.0176 0.614519C28.9143 0.647687 28.8265 0.625878 28.7401 0.649553C28.6835 0.664854 28.678 0.766432 28.6336 0.763322C28.4861 0.753046 28.4346 0.611344 28.2956 0.734209C28.2658 0.760413 28.2954 0.871434 28.1886 0.784135C28.1819 0.778632 28.1025 0.698769 28.0567 0.749284C28.051 0.755653 28.0512 0.788009 28.0436 0.790727C27.9927 0.808308 27.9588 0.782532 27.9034 0.794877C27.848 0.807223 27.7814 0.825627 27.7181 0.814653C27.68 0.80809 27.6311 0.747808 27.6128 0.733049C27.5613 0.690533 27.506 0.760241 27.4741 0.708757C27.4419 0.657014 27.5048 0.578433 27.4204 0.545C27.4173 0.629062 27.4101 0.715343 27.4051 0.799882C27.2201 0.796922 27.0381 0.76974 26.8525 0.773454C26.8295 0.773999 26.853 0.819191 26.8283 0.820939C26.7242 0.828119 26.6333 0.795903 26.5254 0.808732C26.4418 0.818836 26.3502 0.866685 26.2629 0.878739C26.2095 0.782549 26.0799 0.815203 25.9857 0.806413C25.9527 0.803376 25.9549 0.777685 25.9314 0.769304C25.8429 0.738306 25.8844 0.823309 25.8601 0.836686C25.756 0.893778 25.7471 0.701379 25.6244 0.706132C25.6179 0.706319 25.5384 0.808876 25.5275 0.815263C25.4579 0.856909 25.516 0.779567 25.4724 0.771989C25.3929 0.758142 25.3377 0.733649 25.2445 0.763688C25.2173 0.772586 25.152 0.836509 25.0992 0.787065C25.0923 0.78059 25.0961 0.746692 25.0905 0.744707C24.9893 0.711615 24.9867 0.818129 24.9288 0.854203C24.871 0.890269 24.7816 0.816741 24.7635 0.795549C24.7159 0.740727 24.7999 0.77212 24.8025 0.76674C24.8327 0.702717 24.7676 0.71374 24.7178 0.70833C24.7106 0.603891 24.641 0.61016 24.6662 0.703142C24.6691 0.713298 24.7078 0.703558 24.7178 0.70833C24.6741 0.810799 24.5976 0.823922 24.5131 0.728166C24.4735 0.683287 24.5109 0.63096 24.3907 0.650102C24.3362 0.658744 24.3573 0.730655 24.3091 0.750261C24.1992 0.794993 24.0563 0.727912 23.9429 0.738481C23.9018 0.742318 23.9418 0.781682 23.9137 0.785661C23.8391 0.796343 23.7733 0.766808 23.6984 0.781938C23.6916 0.783359 23.7082 0.824565 23.6848 0.82509C23.5082 0.829875 23.3543 0.803482 23.1699 0.802751C23.0807 0.802416 22.9214 0.825142 22.8291 0.820573C22.669 0.812897 22.4722 0.752977 22.3355 0.767534C22.2463 0.776851 22.2659 0.818066 22.2277 0.846147C22.1539 0.900579 22.0235 0.803078 22.0059 0.78798C22.0053 0.787481 22.0821 0.777765 22.0411 0.756608C22.0173 0.712525 22.0068 0.787789 22.0059 0.78798C21.9943 0.778227 21.8411 0.768871 21.8106 0.77675C21.7941 0.781055 21.8034 0.820104 21.7947 0.821611C21.5898 0.856555 21.3845 0.86648 21.1766 0.848222C21.173 0.847433 21.1785 0.803755 21.1699 0.802446C21.0496 0.783025 20.9725 0.836457 20.8733 0.86818C20.774 0.899889 20.6953 0.889269 20.6366 0.814286C20.5617 0.823727 20.4543 0.790578 20.3925 0.770463C20.3307 0.750349 20.3221 0.835372 20.3166 0.837052C20.147 0.89085 20.0489 0.842185 19.8729 0.834611C19.7893 0.830865 19.6233 0.843197 19.5327 0.852494C19.4611 0.859984 19.418 0.840059 19.352 0.8528C19.3431 0.854501 19.3521 0.892357 19.3494 0.893815C19.2757 0.939108 19.3111 0.846562 19.2959 0.830033C19.2408 0.769927 19.2068 0.737915 19.1125 0.766191C19.0907 0.772666 19.0274 0.90592 18.9877 0.913712C18.9362 0.9236 18.9556 0.875837 18.9017 0.887406C18.8971 0.888353 18.898 0.917819 18.8647 0.91652C18.7101 0.910877 18.5415 0.893731 18.3808 0.896684C18.3589 0.896974 18.387 0.943712 18.3553 0.944901C18.2065 0.950441 18.0434 0.948712 17.8985 0.926835C17.8628 0.921303 17.8852 0.888578 17.8774 0.878861C17.8299 0.820069 17.7624 0.905493 17.7513 0.907121C17.4859 0.948171 17.2828 0.870864 17.0122 0.90767C16.9975 0.909831 16.8842 1.00141 16.8336 0.922868C16.8301 0.917642 16.7801 0.837289 16.7359 0.892228C16.7331 0.895665 16.7643 0.937033 16.7099 0.932816C16.6555 0.928609 16.5679 0.956234 16.4931 0.910783C16.4695 0.896465 16.4135 0.816309 16.3429 0.880204C16.3383 0.884665 16.2292 1.02914 16.1903 0.929459C16.184 0.913051 16.1906 0.807566 16.1063 0.86165C16.0902 0.872135 16.1195 0.895663 16.077 0.910355C16.012 0.932999 15.9259 0.904747 15.846 0.951737C15.832 0.960056 15.7727 1.03165 15.7251 0.977311C15.7177 0.9688 15.7318 0.933584 15.7067 0.929643C15.5872 0.910738 15.4621 0.934294 15.3407 0.909928C15.2977 0.901367 15.3197 0.844435 15.2749 0.829179C15.2301 0.813928 15.1398 0.799257 15.0929 0.825273C15.0461 0.8513 15.0973 0.942035 15.027 0.949296C14.7216 0.98083 14.4191 0.927602 14.1141 0.919816C14.0689 0.918653 14.1064 0.951121 14.0397 0.951737C13.794 0.954153 13.3697 0.984595 13.1565 0.915604C12.9856 0.860347 13.2006 0.818279 13.0701 0.795793C13.0071 0.785066 12.9389 0.890555 12.9237 0.893876C12.7751 0.927611 12.6719 0.880882 12.5382 0.895219C12.5106 0.898194 12.5376 0.940949 12.5141 0.943009C12.4339 0.950424 12.3495 0.93134 12.2728 0.93483C12.2384 0.936495 12.2447 0.96915 12.213 0.96663C12.1373 0.960975 12.0703 0.947249 11.9964 0.916642C11.9897 0.913853 12.0351 0.873231 11.979 0.87172C11.8883 0.869391 11.7757 0.839197 11.6713 0.870378C11.6403 0.879757 11.6391 0.95439 11.5725 0.902848C11.5585 0.892083 11.5764 0.802466 11.4988 0.879899C11.4858 0.892767 11.3555 0.99721 11.2916 0.929887C11.2747 0.912168 11.2316 0.838833 11.1944 0.850358C11.1893 0.852197 11.2096 0.892285 11.1787 0.896195C11.0699 0.909279 10.956 0.905002 10.8442 0.917558C10.8144 0.92099 10.8588 0.962473 10.8143 0.966263C10.692 0.976749 10.5393 0.966186 10.4197 0.953202C10.3757 0.948336 10.4061 0.913973 10.4029 0.910233C10.3513 0.849408 10.3208 0.931508 10.3037 0.936295C10.1972 0.96496 10.1161 0.926395 10.0179 0.936601C9.99085 0.939313 10.0101 0.978459 10.0047 0.981949C9.94874 1.01605 9.9904 0.945754 9.955 0.938004C9.85583 0.916062 9.74527 0.919208 9.64498 0.92421C9.60814 0.926105 9.64954 0.971496 9.61648 0.972672C9.42081 0.980494 9.21739 0.97615 9.02642 0.951127C8.99046 0.946333 9.01309 0.911381 9.0056 0.903397C8.95394 0.847545 8.87825 0.923728 8.86083 0.930985C8.78163 0.964121 8.75087 0.933212 8.68093 0.938981C8.33926 0.967705 7.91739 0.947234 7.59488 0.934586C7.17461 0.918309 6.84849 0.885059 6.44772 0.893693C6.42225 0.894198 6.44793 0.940695 6.42598 0.941727C6.14249 0.952936 5.8634 0.934767 5.57934 0.948197C5.55603 0.949217 5.58963 0.993296 5.55222 0.996415C5.47548 1.00312 5.37827 1.00072 5.30068 0.986649C5.26283 0.979868 5.31359 0.942043 5.2755 0.93599C5.1868 0.921809 5.09172 0.91867 5.00061 0.925736C4.96184 0.92884 5.02034 0.973922 4.96994 0.974442C4.62665 0.978915 4.28951 0.986679 3.9426 0.9283C3.91882 0.92429 3.89795 0.832665 3.84739 0.850236C3.84358 0.875664 3.84379 0.905576 3.84212 0.932755C3.34239 0.947396 2.84775 0.915633 2.34661 0.910722C2.32548 0.910525 2.36199 0.959073 2.32109 0.958939C2.08433 0.958222 1.85442 0.971671 1.61224 0.923417C1.58821 0.918698 1.60054 0.833291 1.52973 0.846208C1.51724 0.848565 1.41059 0.859955 1.38301 0.878495C1.37927 0.881292 1.39873 0.921156 1.36436 0.922318C1.16465 0.928372 0.955358 0.919271 0.75599 0.894914C0.723814 0.890906 0.758079 0.848454 0.735162 0.845231C0.572597 0.822696 0.395772 0.854967 0.240433 0.816423C0.136455 0.79047 0.17495 0.717087 0.119698 0.644853C0.111883 0.634662 0.047496 0.633047 0.0441664 0.591021C0.0356182 0.48534 0.066805 0.369621 0.0540083 0.256976C0.0513047 0.232713 -0.0349256 0.258846 0.0161283 0.200214C0.0196949 0.19629 0.0822123 0.17683 0.0976104 0.15694C0.108331 0.143188 0.089012 0.100447 0.110886 0.0828434C0.132757 0.0652564 0.156791 0.101084 0.193054 0.080402C0.229301 0.0594636 0.213363 0.0108407 0.285752 0.0050849ZM20.1142 0.680559C20.0569 0.639728 20.0485 0.789275 20.1104 0.753496C20.1134 0.751589 20.1171 0.682562 20.1142 0.680559ZM27.0391 0.656938C26.9643 0.590977 26.9131 0.687966 26.9659 0.738908C27.0187 0.789796 27.0619 0.676934 27.0391 0.656938ZM27.815 0.608782C27.7276 0.556775 27.7138 0.768839 27.8075 0.725969C27.8129 0.723546 27.8201 0.611802 27.815 0.608782ZM0.375931 0.624285C0.375141 0.622299 0.328858 0.620363 0.327752 0.622331C0.303106 0.669827 0.395655 0.673665 0.375931 0.624285ZM28.585 0.556353C28.5577 0.527666 28.4791 0.560781 28.513 0.596453C28.5403 0.625149 28.619 0.592037 28.585 0.556353ZM17.1285 0.520952C17.1276 0.518724 17.0944 0.516717 17.0951 0.529314C17.0973 0.569886 17.1435 0.558436 17.1285 0.520952ZM29.8936 0.553911C29.7003 0.545929 29.583 0.370754 29.7936 0.390521C29.8317 0.394097 29.7114 0.446383 29.76 0.462176C29.8488 0.490948 29.9077 0.38096 29.9983 0.439898C30.0147 0.450686 29.905 0.554512 29.8936 0.553911C29.8935 0.553993 29.8937 0.55383 29.8936 0.553911ZM20.0812 0.500933C20.0801 0.498955 20.0341 0.49708 20.033 0.499041C20.0082 0.546518 20.1007 0.550323 20.0812 0.500933ZM15.1923 0.428484C15.1898 0.424271 15.0832 0.420329 15.0797 0.424212C15.0241 0.50185 15.2396 0.510048 15.1923 0.428484ZM23.1748 0.391497C23.2249 0.343735 23.2851 0.338173 23.325 0.39815C23.2752 0.394966 23.2249 0.394436 23.1748 0.391497Z" fill="#61060F" stroke="#61060F" stroke-width="1.5"/>
</g>
<defs>
<clipPath id="clip0_560_2">
<rect width="30" height="3" fill="white"/>
</clipPath>
</defs>
</svg>
